<svg xmlns="http://www.w3.org/2000/svg" width="800" height="800" class="icon flat-color" data-name="Flat Color" viewBox="0 0 24 24"><path d="M21 11v9a2 2 0 0 1-2 2H5a2 2 0 0 1-2-2v-9a1 1 0 0 1 1-1h16a1 1 0 0 1 1 1Zm-5-3H8a1 1 0 0 1-1-1V4a2 2 0 0 1 2-2h6a2 2 0 0 1 2 2v3a1 1 0 0 1-1 1ZM9 6h6V4H9Z" style="fill:#000"/><path d="M20 6H4a2 2 0 0 0-2 2v.88A6.11 6.11 0 0 0 8.12 15h7.76A6.11 6.11 0 0 0 22 8.88V8a2 2 0 0 0-2-2Z" style="fill:#2ca9bc"/><path d="M13 16h-2a1 1 0 0 1-1-1v-2a1 1 0 0 1 1-1h2a1 1 0 0 1 1 1v2a1 1 0 0 1-1 1Zm-1-2Z" data-name="primary" style="fill:#000"/></svg>